<svg xmlns="http://www.w3.org/2000/svg" xmlns:xlink="http://www.w3.org/1999/xlink" width="500" zoomAndPan="magnify" viewBox="0 0 375 374.999991" height="500" preserveAspectRatio="xMidYMid meet" version="1.0"><defs><g/><clipPath id="05649ccb42"><path d="M 154 106 L 193.683594 106 L 193.683594 255.652344 L 154 255.652344 Z M 154 106 " clip-rule="nonzero"/></clipPath><clipPath id="24c14c39e4"><path d="M 209.878906 208.003906 L 298.390625 208.003906 L 298.390625 211.816406 L 209.878906 211.816406 Z M 209.878906 208.003906 " clip-rule="nonzero"/></clipPath><clipPath id="a6a5e6949b"><path d="M 210.574219 210.105469 C 235.03125 208.949219 293.433594 206.480469 297.601562 209.332031 C 298.21875 209.796875 298.21875 210.566406 298.140625 210.722656 C 297.984375 210.800781 296.828125 210.257812 296.828125 210.105469 C 296.828125 209.875 297.984375 209.410156 298.140625 209.566406 C 298.292969 209.71875 297.910156 210.875 297.675781 210.875 C 297.445312 210.953125 296.828125 210.414062 296.828125 210.183594 C 296.828125 209.949219 297.367188 209.332031 297.601562 209.332031 C 297.832031 209.410156 298.371094 209.949219 298.371094 210.257812 C 298.371094 210.492188 298.140625 210.722656 297.601562 210.875 C 292.972656 212.652344 235.03125 210.492188 221.222656 210.953125 C 216.050781 211.109375 211.964844 212.1875 210.574219 211.648438 C 210.113281 211.417969 209.878906 211.109375 209.878906 210.875 C 209.878906 210.644531 210.574219 210.105469 210.574219 210.105469 " clip-rule="nonzero"/></clipPath></defs><g clip-path="url(#05649ccb42)"><path fill="#000000" d="M 192.644531 119.886719 C 192.398438 117.847656 192.125 115.808594 191.605469 113.8125 C 191.28125 112.570312 190.902344 111.304688 190.101562 110.238281 C 189.539062 109.433594 188.785156 108.679688 187.769531 108.371094 C 186.199219 107.980469 184.570312 108.496094 183.0625 108.890625 C 181.503906 106.667969 178.765625 105.714844 175.972656 106.398438 C 174.847656 106.621094 173.777344 107.136719 172.960938 107.875 C 172.757812 108.101562 172.613281 108.367188 172.503906 108.640625 C 172.445312 108.773438 172.402344 108.921875 172.433594 109.066406 C 172.625 110.074219 174.792969 110.5625 175.753906 110.726562 C 178.496094 111.15625 180.0625 110.539062 182.582031 109.777344 C 183.460938 111.183594 183.769531 112.808594 183.96875 114.398438 C 184.167969 115.941406 184.261719 117.410156 184.316406 118.992188 C 184.566406 128.390625 182.988281 137.78125 180.308594 146.84375 C 178.40625 139.625 175.441406 132.636719 171.28125 126.246094 C 169.738281 123.878906 167.980469 121.613281 165.925781 119.59375 C 164.058594 117.828125 160.949219 115.273438 158.363281 114.605469 C 157.5 114.421875 156.511719 114.550781 155.789062 115.03125 C 154.710938 115.828125 154.480469 117.152344 154.300781 118.335938 C 153.933594 121.882812 154.851562 125.414062 155.960938 128.789062 C 158.011719 134.820312 160.828125 140.628906 164.292969 146.097656 C 165.808594 148.550781 167.304688 151.023438 169.023438 153.367188 C 169.984375 154.65625 170.902344 156.082031 172.367188 156.941406 C 174.640625 157.992188 176.375 156.414062 177.523438 154.761719 C 178.710938 155.410156 180.1875 155.710938 181.542969 155.386719 C 184.25 168.636719 185.878906 182.289062 183.570312 195.699219 C 180.699219 211.414062 170.066406 226.378906 173.714844 242.738281 C 174.339844 245.6875 175.296875 248.574219 176.546875 251.355469 C 176.847656 252.023438 177.148438 252.695312 177.527344 253.332031 C 178.015625 254.109375 178.46875 254.96875 179.269531 255.523438 C 179.359375 255.582031 179.484375 255.574219 179.558594 255.488281 C 179.625 255.414062 179.613281 255.285156 179.519531 255.226562 C 179.324219 255.097656 179.195312 254.898438 179.050781 254.722656 C 178.3125 253.703125 177.757812 252.582031 177.273438 251.449219 C 176.101562 248.722656 175.160156 245.917969 174.53125 243.042969 C 171.007812 228.066406 179.753906 214.003906 183.472656 199.796875 C 184.640625 195.273438 185.179688 190.632812 185.363281 185.996094 C 185.878906 175.648438 184.347656 165.332031 182.296875 155.179688 C 182.902344 154.976562 183.457031 154.679688 183.988281 154.355469 C 184.890625 153.8125 185.734375 153.175781 186.371094 152.375 C 188.242188 149.945312 189.230469 147.050781 190.144531 144.226562 C 192.617188 136.339844 193.679688 128.054688 192.648438 119.882812 Z M 178.152344 110.121094 C 176.640625 110.214844 175.097656 109.988281 173.738281 109.371094 C 173.558594 109.273438 173.332031 109.164062 173.246094 108.960938 C 173.328125 108.765625 173.425781 108.578125 173.554688 108.40625 C 173.761719 108.203125 174.015625 108.050781 174.265625 107.890625 C 174.898438 107.5 175.625 107.25 176.375 107.125 C 178.640625 106.644531 180.832031 107.425781 182.167969 109.152344 C 180.847656 109.523438 179.550781 110.039062 178.15625 110.121094 Z M 177.511719 153.773438 C 174.796875 151.867188 173.21875 148.988281 171.855469 146.195312 C 169.792969 141.800781 167.851562 137.359375 165.992188 132.890625 C 165.691406 132.285156 164.714844 132.671875 164.976562 133.28125 C 166.75 137.648438 168.703125 141.949219 170.769531 146.203125 C 172.289062 149.261719 174.042969 152.425781 177.054688 154.484375 C 176.339844 155.464844 175.464844 156.59375 174.074219 156.730469 C 173.570312 156.753906 173.035156 156.589844 172.605469 156.347656 C 171.984375 155.914062 171.5 155.339844 171.023438 154.78125 C 170.046875 153.542969 169.167969 152.253906 168.28125 150.941406 C 164.5 145.171875 160.890625 139.277344 158.296875 132.96875 C 156.929688 129.679688 155.683594 126.285156 155.117188 122.789062 C 154.863281 120.78125 154.589844 117.816406 155.742188 116.03125 C 156.15625 115.410156 156.972656 115.175781 157.734375 115.230469 C 158.757812 115.347656 159.652344 115.886719 160.5 116.386719 C 166.449219 120.050781 170.261719 125.816406 173.417969 131.558594 C 176.339844 136.839844 178.414062 142.449219 179.859375 148.226562 C 179.210938 150.117188 178.542969 152.011719 177.511719 153.773438 Z M 181.296875 154.644531 C 181.09375 154.679688 180.890625 154.710938 180.683594 154.730469 C 179.734375 154.75 178.78125 154.519531 177.980469 154.0625 C 178.890625 152.554688 179.523438 150.925781 180.128906 149.304688 C 180.566406 151.078125 180.980469 152.84375 181.375 154.625 C 181.347656 154.632812 181.320312 154.636719 181.296875 154.644531 Z M 188.410156 146.929688 C 188.003906 147.996094 187.550781 149.046875 186.988281 150.046875 C 186.539062 150.890625 186.027344 151.703125 185.332031 152.398438 C 184.433594 153.25 183.324219 153.949219 182.128906 154.410156 C 181.894531 153.351562 181.652344 152.292969 181.402344 151.238281 C 181.144531 150.144531 180.878906 149.046875 180.601562 147.957031 C 183.722656 138.320312 185.480469 128.230469 185.160156 118.167969 C 185.097656 116.734375 185 115.296875 184.800781 113.871094 C 184.59375 112.375 184.261719 110.863281 183.46875 109.527344 C 184.898438 109.183594 186.867188 108.503906 188.191406 109.355469 C 190.042969 110.640625 190.585938 112.851562 191.050781 114.820312 C 191.484375 116.824219 191.75 118.855469 191.964844 120.890625 C 192.917969 129.671875 191.453125 138.570312 188.414062 146.929688 Z M 188.410156 146.929688 " fill-opacity="1" fill-rule="nonzero"/></g><g fill="#000000" fill-opacity="1"><g transform="translate(82.998677, 202.874987)"><g><path d="M 28.015625 -48.25 L 47.484375 0 L 35.671875 0 L 32.109375 -9.65625 L 13.75 -9.65625 L 10.171875 0 L -1.640625 0 L 17.84375 -48.25 Z M 28.359375 -19.296875 L 22.984375 -33.34375 L 22.875 -33.34375 L 17.484375 -19.296875 Z M 28.359375 -19.296875 "/></g></g></g><g fill="#000000" fill-opacity="1"><g transform="translate(122.117727, 202.874987)"><g><path d="M 34.375 -26.25 C 37.1875 -23.175781 38.59375 -19.414062 38.59375 -14.96875 C 38.59375 -10.53125 37.1875 -6.78125 34.375 -3.71875 C 31.570312 -0.65625 28.007812 0.875 23.6875 0.875 C 19.707031 0.875 16.429688 -0.546875 13.859375 -3.390625 L 13.75 -3.390625 L 13.75 0 L 3.515625 0 L 3.515625 -50.296875 L 13.859375 -50.296875 L 13.859375 -27.140625 C 16.429688 -29.628906 19.707031 -30.875 23.6875 -30.875 C 28.007812 -30.875 31.570312 -29.332031 34.375 -26.25 Z M 25.671875 -9.90625 C 26.960938 -11.21875 27.609375 -12.90625 27.609375 -14.96875 C 27.609375 -17.039062 26.929688 -18.738281 25.578125 -20.0625 C 24.234375 -21.382812 22.570312 -22.046875 20.59375 -22.046875 C 18.632812 -22.046875 16.984375 -21.382812 15.640625 -20.0625 C 14.296875 -18.738281 13.625 -17.039062 13.625 -14.96875 C 13.625 -12.945312 14.273438 -11.269531 15.578125 -9.9375 C 16.890625 -8.613281 18.5625 -7.953125 20.59375 -7.953125 C 22.695312 -7.953125 24.390625 -8.601562 25.671875 -9.90625 Z M 25.671875 -9.90625 "/></g></g></g><g fill="#000000" fill-opacity="1"><g transform="translate(155.330642, 202.874987)"><g><path d="M 26.265625 -30 L 38.1875 -30 L 14.625 15.203125 L 2.6875 15.203125 L 13.046875 -4.671875 L -1.171875 -30 L 10.765625 -30 L 19.125 -14.625 Z M 26.265625 -30 "/></g></g></g><g fill="#000000" fill-opacity="1"><g transform="translate(185.619729, 202.874987)"><g><path d="M 5.546875 -3.71875 C 2.742188 -6.78125 1.34375 -10.53125 1.34375 -14.96875 C 1.34375 -19.414062 2.742188 -23.175781 5.546875 -26.25 C 8.359375 -29.332031 11.929688 -30.875 16.265625 -30.875 C 20.234375 -30.875 23.503906 -29.628906 26.078125 -27.140625 L 26.078125 -30 L 36.4375 -30 L 36.4375 0 L 26.203125 0 L 26.203125 -3.390625 L 26.078125 -3.390625 C 23.503906 -0.546875 20.234375 0.875 16.265625 0.875 C 11.929688 0.875 8.359375 -0.65625 5.546875 -3.71875 Z M 14.359375 -20.0625 C 13.015625 -18.738281 12.34375 -17.039062 12.34375 -14.96875 C 12.34375 -12.90625 12.984375 -11.21875 14.265625 -9.90625 C 15.554688 -8.601562 17.253906 -7.953125 19.359375 -7.953125 C 21.390625 -7.953125 23.054688 -8.613281 24.359375 -9.9375 C 25.660156 -11.269531 26.3125 -12.945312 26.3125 -14.96875 C 26.3125 -17.039062 25.640625 -18.738281 24.296875 -20.0625 C 22.953125 -21.382812 21.304688 -22.046875 19.359375 -22.046875 C 17.367188 -22.046875 15.703125 -21.382812 14.359375 -20.0625 Z M 14.359375 -20.0625 "/></g></g></g><g fill="#000000" fill-opacity="1"><g transform="translate(218.832645, 202.874987)"><g><path d="M 5.546875 -3.71875 C 2.742188 -6.78125 1.34375 -10.53125 1.34375 -14.96875 C 1.34375 -19.414062 2.742188 -23.175781 5.546875 -26.25 C 8.359375 -29.332031 11.929688 -30.875 16.265625 -30.875 C 20.234375 -30.875 23.503906 -29.628906 26.078125 -27.140625 L 26.078125 -30 L 36.4375 -30 L 36.4375 0 L 26.203125 0 L 26.203125 -3.390625 L 26.078125 -3.390625 C 23.503906 -0.546875 20.234375 0.875 16.265625 0.875 C 11.929688 0.875 8.359375 -0.65625 5.546875 -3.71875 Z M 14.359375 -20.0625 C 13.015625 -18.738281 12.34375 -17.039062 12.34375 -14.96875 C 12.34375 -12.90625 12.984375 -11.21875 14.265625 -9.90625 C 15.554688 -8.601562 17.253906 -7.953125 19.359375 -7.953125 C 21.390625 -7.953125 23.054688 -8.613281 24.359375 -9.9375 C 25.660156 -11.269531 26.3125 -12.945312 26.3125 -14.96875 C 26.3125 -17.039062 25.640625 -18.738281 24.296875 -20.0625 C 22.953125 -21.382812 21.304688 -22.046875 19.359375 -22.046875 C 17.367188 -22.046875 15.703125 -21.382812 14.359375 -20.0625 Z M 14.359375 -20.0625 "/></g></g></g><g fill="#000000" fill-opacity="1"><g transform="translate(252.04556, 202.874987)"><g><path d="M 5.546875 -3.71875 C 2.742188 -6.78125 1.34375 -10.53125 1.34375 -14.96875 C 1.34375 -19.414062 2.742188 -23.175781 5.546875 -26.25 C 8.359375 -29.332031 11.929688 -30.875 16.265625 -30.875 C 20.234375 -30.875 23.503906 -29.628906 26.078125 -27.140625 L 26.078125 -50.296875 L 36.4375 -50.296875 L 36.4375 0 L 26.203125 0 L 26.203125 -3.390625 L 26.078125 -3.390625 C 23.503906 -0.546875 20.234375 0.875 16.265625 0.875 C 11.929688 0.875 8.359375 -0.65625 5.546875 -3.71875 Z M 14.359375 -20.0625 C 13.015625 -18.738281 12.34375 -17.039062 12.34375 -14.96875 C 12.34375 -12.90625 12.984375 -11.21875 14.265625 -9.90625 C 15.554688 -8.601562 17.253906 -7.953125 19.359375 -7.953125 C 21.390625 -7.953125 23.054688 -8.613281 24.359375 -9.9375 C 25.660156 -11.269531 26.3125 -12.945312 26.3125 -14.96875 C 26.3125 -17.039062 25.640625 -18.738281 24.296875 -20.0625 C 22.953125 -21.382812 21.304688 -22.046875 19.359375 -22.046875 C 17.367188 -22.046875 15.703125 -21.382812 14.359375 -20.0625 Z M 14.359375 -20.0625 "/></g></g></g><g fill="#000000" fill-opacity="1"><g transform="translate(285.264288, 202.874987)"><g/></g></g><g clip-path="url(#24c14c39e4)"><g clip-path="url(#a6a5e6949b)"><path fill="#000000" d="M 206.792969 206.246094 L 301.472656 206.246094 L 301.472656 214.734375 L 206.792969 214.734375 Z M 206.792969 206.246094 " fill-opacity="1" fill-rule="nonzero"/></g></g></svg>